<svg xmlns="http://www.w3.org/2000/svg" version="1.1" id="svg2" x="0" y="0" viewBox="0 0 226 312" xml:space="preserve"><style type="text/css" id="style3825">.st2{fill:#231f20}.st3{fill-rule:evenodd;clip-rule:evenodd;fill:#f0d6b7}.st5{fill:#dcd9d8}.st5,.st6{fill-rule:evenodd;clip-rule:evenodd}.st6,.st7{fill:#f7e4cd}.st13{fill:#fff}.st13,.st14,.st15{fill-rule:evenodd;clip-rule:evenodd}.st14{fill:#7959ac}.st15{fill:#231f20}.st16{fill:#fff}.st17{font-family:&apos;Knockout-28JuniorFeathrwt&apos;}.st18{font-size:14.7449px}</style><g id="g10" transform="matrix(1.25 0 0 -1.25 0 312)"><g id="g226" transform="matrix(.93348 0 0 .96303 1.726 -18.145)"><g transform="translate(1.9 17.1)" id="g3393"><path d="M177.7 129.3c-.6-51.4-39.3-90-87.5-89.5-48.3.4-87.5 40-87.5 89.5 0 49.4 39.2 89.5 87.5 89.5s87.5-40.1 87.5-89.5" id="path22" clip-rule="evenodd" fill="#d33833" fill-rule="evenodd"/><path d="M6.3 107.1S0 200.4 86 203.1l-6 10-46.7-15.7L20 182.1 8.3 159.8l-6.7-26 2-17.3" id="path24" fill="#ef3d3a"/><path d="M30.3 190.3c-15.4-15.7-24.9-37.4-24.9-61.4s9.5-45.7 24.9-61.4c15.4-15.7 36.5-25.4 59.9-25.4s44.6 9.7 59.9 25.4c15.4 15.7 24.9 37.4 24.9 61.4s-9.5 45.7-24.9 61.4c-15.4 15.7-36.5 25.4-59.9 25.4s-44.6-9.7-59.9-25.4zM26.4 63.7C10.1 80.4 0 103.5 0 128.9c0 25.4 10.1 48.5 26.4 65.2 16.3 16.7 38.9 27 63.8 27s47.5-10.3 63.8-27c16.3-16.7 26.4-39.7 26.4-65.2 0-25.4-10.1-48.5-26.4-65.2-16.3-16.7-38.9-27-63.8-27s-47.5 10.4-63.8 27" class="st2" id="path26" fill="#231f20"/><path d="M127.1 128.8l-15.7-7-15.4-.9-12.2.3-11.1 3.5-8.7 2.7-7.7 8.3-6 17-1.3 3.7-8 2.7-4.7 7.7-3.3 11 3.7 9.7 8.7 3 7-3.3 3.3-7.3 4 .7 1.3 1.7-1.3 7.7-.3 9.7 2 13.3-.1 7.6 6.1 9.7 10.7 7.7 18.7 8 20.7-3 18-13 8.3-13.3 5.3-9.7 1.3-24-4-20.7-7.3-18.3-7-9.7" class="st3" id="path28" clip-rule="evenodd" fill="#f0d6b7" fill-rule="evenodd"/><path d="M36.7 187.4l8.7 3 7-3.3 3.3-7.3 4 .7 1 4-2 7.7 2 18.3-1.7 10 6 7 13 10.3-3.7 5-18.3-9-7.7-6-4.3-9.3-6.7-9-2-10.7 1.4-11.4" id="path32" clip-rule="evenodd" fill="#6d6b6d" fill-rule="evenodd"/><path d="M50.4 218.8s5 12.3 25 18.3 1 4.3 1 4.3l-21.7-8.3-8.3-8.3-3.7-6.7 7.7.7" class="st5" id="path34" clip-rule="evenodd" fill="#dcd9d8" fill-rule="evenodd"/><path d="M40.4 189.8s-7 23.3 19.7 26.7l-1 4-18.3-4.3-5.3-17.3 1.3-11.3 3.6 2.2" class="st5" id="path36" clip-rule="evenodd" fill="#dcd9d8" fill-rule="evenodd"/><path d="M51 158.8l4.4 4.2s2-.2 2.3-2.6c.3-2.3 1.3-23.3 15.7-34.7 1.3-1-10.7 1.7-10.7 1.7L52 144.1" class="st6" id="path38" clip-rule="evenodd" fill="#f7e4cd" fill-rule="evenodd"/><path d="M90.5 157.3c.4.6 2.9 1.5 6.2-.2 0 0-4-.7-3.7-7.3l-1.7.3c.1 0-1.6 6-.8 7.2" class="st6" id="path132" clip-rule="evenodd" fill="#f7e4cd" fill-rule="evenodd"/><path d="M112.4 165.1s.8 10.1 3.5 9.3c2.7-.8 2.7-3.5 2.7-3.5s-6.6-4.2-6.2-5.8" class="st6" id="path40" clip-rule="evenodd" fill="#f7e4cd" fill-rule="evenodd"/><path d="M140.1 202.1s-5.5-1.2-6-6 6-1 7-.7" class="st7" id="path42" fill="#f7e4cd"/><path d="M99.7 201.8s-7.3-1-7.3-5.7 8.3-4.3 10.7-2.3" class="st7" id="path44" fill="#f7e4cd"/><path d="M54.4 180.1s-12.7 7.7-14 .3c-1.3-7.3-4.3-12.7 2-20.3l-4.3 1.3-4 10.3-1.3 10 7.7 8 8.7-.7 5-4 .2-4.9" class="st6" id="path46" clip-rule="evenodd" fill="#f7e4cd" fill-rule="evenodd"/><path d="M60.4 201.1s5.7 29.3 34.3 35c23.6 4.7 36-1 40.7-6.3 0 0-21 25-41 17.3-20-7.7-34.7-21.7-34.3-30.7.5-15.3.3-15.3.3-15.3" class="st6" id="path48" clip-rule="evenodd" fill="#f7e4cd" fill-rule="evenodd"/><path d="M137.7 226.4s-9.7.3-10-8.3c0 0 0-1.3.7-2.7 0 0 7.7 8.7 12.3 4" class="st6" id="path50" clip-rule="evenodd" fill="#f7e4cd" fill-rule="evenodd"/><path d="M95.4 214.5s-1.7 13.3-13 5.6c-7.3-5-6.7-12-5.3-13.3 1.3-1.3 1-4 2-2.2 1 1.8.7 7.8 4.3 9.5 3.6 1.7 9.7 3.5 12 .4" class="st6" id="path52" clip-rule="evenodd" fill="#f7e4cd" fill-rule="evenodd"/><path transform="matrix(1 0 0 .9891 0 1.422)" id="polygon3844" class="st3" clip-rule="evenodd" fill="#f0d6b7" fill-rule="evenodd" d="M118.7 70.2l-29 13.6 5.4 10.4-7.7-2.7-3 3.7-4 17.3-3.3 1-7.4 2.3-6.3 5.7-7.3 9-8.4-3.3-26.6-18.4 1.6-5.3 7.7-22.7.6-60.1 2.3-4 6.5-5.5L70 14.7l5.4 25.4-10.7 3.6 50.4 24.5z"/><path id="path3846" d="M166.3 72.3c6.2-57.2-6.4-57.9-24.9-51.5-4.2 1.8 9.9 29.8 9.9 29.8L144.1 89l3.8.6s16.5.7 18.4-17.3z" clip-rule="evenodd" fill="#f0d6b7" fill-rule="evenodd" stroke="#231f20" stroke-width="4" stroke-miterlimit="10"/><path id="path3848" d="M140.1 135.8l-3 2.7-8-8-16.7-7.8-19.4-3-29.4 4.7-7.3 9L48 130l-26.7-18.3 1.7-5.3 7.7-22.7 1.5-17.1s7.2-3.2 16.6-3.7c11.6-.6 18.6 3.1 18.6 3.1l2.7 2.1-.3-45.4h72.4l1.8 48.2 22.4-1-1.1 55.8z" clip-rule="evenodd" fill="#5c398e" fill-rule="evenodd"/><ellipse id="ellipse3850" ry="16" rx="12.6" cy="37.2" cx="148.1" clip-rule="evenodd" fill="#fff" fill-rule="evenodd" stroke="#231f20" stroke-width="5" stroke-miterlimit="10"/><path d="M121.1 34.8c4.7-.6 15-6.3 15 5 0 11.5-11.2 4.6-15.5 3.8-1.1-.2-2.1 2.5-2.1 2.5l-.3 15.5H94.1v-42h24.3v12.6s1.1 2.8 2.7 2.6z" id="path3854" fill="#d33833" stroke="#231f20" stroke-width="5" stroke-miterlimit="10"/><path d="M63.4 126.3l-31.3-14 7.8-45.7-5.1.9-2.8 1-7.3 34.8-3.7 10.3 32.7 22 9.7-9.3" class="st14" id="path54" clip-rule="evenodd" fill="#7959ac" fill-rule="evenodd"/><path d="M64 90.9c0 6.1 5.3 10.2 6.5 0-.7-16.6-1.5-24.4-1.5-24.4l-5-1.7v26.1z" class="st14" id="path56_2_" clip-rule="evenodd" fill="#7959ac" fill-rule="evenodd"/><path d="M65.5 45.7l-13.7-1.1 5.6-3 10.1-2.4" class="st6" id="path64" clip-rule="evenodd" fill="#f7e4cd" fill-rule="evenodd"/><path d="M130.7 131.4l32.8-10.5-2.6 7.7-23.9 9.8-6.3-7" class="st14" id="path66" clip-rule="evenodd" fill="#7959ac" fill-rule="evenodd"/><path d="M71 17.6l13 3.7 9.7.5 3.2 6 1.2 5.7 4.4 2.3 8.6 5.3-1.3 9.5-3.9 7.7-6 2.4L89 55.9 83.2 48l-2-1.8-4.2.1-5.4 1-4.2-1.7" class="st13" id="path72" clip-rule="evenodd" fill="#fff" fill-rule="evenodd"/><path d="M69.8 21.9s10.9 4.6 12.3 4.3l-4.2 21.1 4.3 1.7s3.5-20.1 3.5-22.1l9.3.7v-7.9l-6.6.5-11.7-1.7-5.9-1.9" class="st5" id="path74" clip-rule="evenodd" fill="#dcd9d8" fill-rule="evenodd"/><path d="M95.4 214.5c-9.1 2.1-13.6-3.8-16.4-9.9-2.5.6-1.5 3.9-.9 5.6 1.6 4.5 8.2 10.4 13.5 9.6 2.4-.3 5.5-2.4 3.8-5.3" class="st15" id="path100" clip-rule="evenodd" fill="#231f20" fill-rule="evenodd"/><path d="M139.7 204.2h.4c2.1-4.3 3.8-8.8 6.4-12.5-1.7-4-13.1-7.6-13-.4 2.5 1.1 6.7.2 8.9 1.6-1.2 3.4-3 6.4-2.7 11.3" class="st15" id="path102" clip-rule="evenodd" fill="#231f20" fill-rule="evenodd"/><path d="M100 204.1c1.9-3.6 2.6-7.3 5.4-10 1.2-1.2 3.7-2.7 2.5-6.1-.3-.8-2.3-2.6-3.5-2.9-4.3-1.3-14.4-.3-11 5.1 3.6-.2 8.4-2.3 11.1.3-2.1 3.2-5.8 9.7-4.5 13.6" class="st15" id="path104" clip-rule="evenodd" fill="#231f20" fill-rule="evenodd"/><path d="M138 167.8c-6.5-4.2-13.8-8.7-24.5-7.7-2.3 2-3.2 6.4-.9 9.3 1.2-2 .4-5.6 3.6-6.2 6.1-1 13.1 3.7 17.5 5.4 2.7 4.6-.2 6.2-2.7 9.2-5 6-11.7 13.5-11.4 22.5 2 1.5 2.2-2.2 2.5-2.9 2.6-6.1 9.2-13.9 13.9-19.1 1.2-1.3 3.1-2.5 3.3-3.4.7-2.5-1.5-5.5-1.3-7.1" class="st15" id="path106" clip-rule="evenodd" fill="#231f20" fill-rule="evenodd"/><path d="M52.1 172.2c-2 1.2-2.5 6.3-4.9 6.4-3.4.2-2.8-6.7-2.8-10.7-2.4 2.1-2.8 8.7-1 12.1-2 1-2.9-1.1-4-1.8 1.4 10.3 15 4.8 12.7-6" class="st15" id="path108" clip-rule="evenodd" fill="#231f20" fill-rule="evenodd"/><path d="M142.2 163.5c-3-5.8-7.3-12.1-16.2-12.3-.2 1.9-.3 4.7 0 5.8 6.8.7 11 4.1 16.2 6.5" class="st15" id="path110" clip-rule="evenodd" fill="#231f20" fill-rule="evenodd"/><path d="M99.5 159.8c5.7-3 16.1-3.3 23.8-3.1.4-1.7.4-3.8.4-5.8-9.8-.5-21.6 1.9-24.2 8.9" class="st15" id="path112" clip-rule="evenodd" fill="#231f20" fill-rule="evenodd"/><path d="M98.4 154.2c3.9-9.9 17.4-8.7 28.8-8.5-.5-1.3-1.6-2.8-2.9-3.3-3.6-1.5-13.7-2.6-18.8.1-3.2 1.7-5.3 5.6-7 7.8-.8 1.1-5.1 3.9-.1 3.9" class="st15" id="path114" clip-rule="evenodd" fill="#231f20" fill-rule="evenodd"/><path d="M69.8 44.5c.7-7.4 2.6-15.6 3.2-23.4 2.5-.1 4.5.5 5.9 1.5-.8 6.6-1.3 14-2.5 21.6zm27-10.7c5.6 4.5 14.1 6.7 13.3 8.7-.8 2-4.4.9-7.7 0-4-1.1-8.3-4-8.3-3.6 2.7 5.3 10.8 7.1 13.8 7.3 1 0 1.3 3.1-.5 3.6s-4.2.6-8.4-1.4c-3.8-1.7-7-5.7-7.1-5.5 1.5 5.9 8.7 8.8 13.8 9.8 1.3 1 .4 2.7-1.5 3.2-.6.2-9.2-1.6-15.1-8.2 3 8.2 13.7 8.9 13.3 9.7-.5.8-2.9 1.1-4.5.8-1.8-.3-4.9-1.9-5.8-2.3-5-2.1-10.9-11.4-10.9-11.4s-1.1-.1-1.6-.4c1.8-5.9 2.3-14 3.1-21.5 2.5-.2 7.8.5 9.4.5 2.3.1 3.7 2.7 4.7 10.7zM69 19.7s-6.9-1.4-19.4-2.4c-7-.5-13 0-15 6.8-.3 9.2.8 29-.6 38.1 0 0 7.6-1.8 15.7-1.9 7-.1 15.6 1.7 17.7 2.5-.2-1.7-.3-13.6-.9-14.8-3.4-.8-13.4-1-14.7-3.4 4.3.5 13.6-.5 13.6-.5zm-9.6 106.6l-4.3 3.9c-11.1-4.4-21.5-11.9-30.7-19.1 4.3-9.2 9.7-29.2 10-42.9 0 0 6.1-2.7 15.5-2.9 9.1-.2 16.3 2.1 17.8 2.8 0 4.8.3 20.7.5 23.3.1.8.4 4.7 2.3 4 1.7-.6-.1-10.2.1-14.5.2-3.9-1.2-30.1.4-32.5 1.6.2 7.9-.8 7.9-.8 5.4 10.6 12.8 14.2 20.8 14.1 2.7 0 10-.7 12.4-17.6.6-4.2-2.2-5.7-5.8-7.5-2.5-1.2-4.4-3.2-6.6-4.1.1-3.9-.7-12.8-4.8-13.6-5.8-1.2-11.6-1.1-11.6-1.1-4.6.3-38.3-10.5-46.6-4.6-2.9 1.3-5.3 4.2-6.4 6.5-1.1 2.2-.6 6.5-.9 10.6-.7 10.4.9 40-1.8 50.6-1.2 4.8-2.8 11.8-4.3 16.4-1.4 4.3-3.8 9.5-4.4 13.8-.9 6.3 5 6.6 8.8 9.4 5.9 4.2 10.5 6.5 16.8 10.4 1.9 1.1 7.5 4 8.2 5.3 1.3 2.6-2.2 6.3-3.1 8.3-1.5 3.2-2.2 6-2.5 9.2-5.3.8-9.4 4-11.8 7.6-4 5.9-6.8 16.8-3.3 25.2.3.7 1.6 1.9 1.8 2.9.4 2-.7 4.6-.8 6.7-.4 10.8 1.8 20.1 9.1 23.4 3 11.8 13.5 15.7 23.5 21.5 3.7 2.2 7.8 3.6 12.1 5.1 15.2 5.6 38.5 4.5 51.2-5 5.4-4 13.9-12.6 17-18.8 8.1-16.3 7.5-43.6 1.9-63.5-1.1-8-5.9-17.9-8.1-21.3 0 0 27.6-5.3 27.8-12.6.5-4.8 1.6-48.1-.1-56.6l-19.7.6.2-7.8-4.3 2.5s.1 23.1 2.4 32.1c.3 1 2.3-22.2 2.3-22.2l16.1-.2s-.2 47.8-1.7 51.5c-1.2 2.9-22.3 7.1-26.2 10.2-1.6-2.3-18.1-18.3-46.1-16.9-16.9.9-31 8.2-31 8.2m-17.7 84.9c-4.4-4.8-3.5-13.9-2.9-20.4 8 5 18.5-.4 18.4-8.9 3.8.1 1.4 4.7.7 7.7-2.2 9.8 3.8 20.4.3 29.3-6.8-.4-12.4-3.2-16.5-7.7zm31.6 28.1c-10-2.8-22.7-10.1-26.8-19 3.2.5 5.4 2.1 8.5 2.3 1.2.1 2.7-.5 4.1-.2 2.7.7 5 6.7 7 9 2 2.2 4.4 3.1 6 5.2 1.1.5 2.6.5 2.7 2.1-.5.4-1 .8-1.5.6zm51.9-2.6c-10.3 5.8-27.9 10.2-38.9 4.7-8.9-4.4-20.9-11.8-25-21 3.8-9-1.1-17.2-1.4-26.3-.2-4.8 2.3-9.1 2.5-14.3-1.3-2.2-5.3-2.4-8.1-2.3-.9 4.7-2.6 9.9-7.4 10.4-6.8.7-11.8-4.9-12.1-10.8-.4-6.9 5.3-18.4 13.3-17.6 3.1.3 3.9 3.4 7.3 3.4 1.8-3.7-2.8-4.8-3.3-7.4-.1-.7.4-3.3.7-4.6 1.5-6 4.7-13.8 7.9-18.4 4.1-5.8 16.5-9.8 25.1-10.3 0 0 17.7-2 23.6 1.4 0 0-5.4-1.5-12.7.8-7.3 2.3-13 9-16.4 12.8-3.9 4.3-7.9 8.9-8.1 14.6 7.4-10.2 13.5-19.2 26.9-23.7 10.2-3.4 22 1.6 29.8 7 3.2 2.3 5.2 5.9 7.5 9.2 8.6 12.4 12.6 30.1 11.8 47.2-.4 7.1-.3 14.1-2.7 18.9-2.5 5-10.9 9.4-15.8 4.9-.9 4.8 4.1 7.8 9.9 6.1-4.1 5.4-8.5 11.9-14.4 15.3z" class="st15" id="path130" clip-rule="evenodd" fill="#231f20" fill-rule="evenodd"/><path id="path3876" d="M82.7 40.5s.4 2 1.9 4c1.6 2 3.4 1.7 3.4 1.7s-1.5-.7-2.5-2c-1-1.4-2.8-3.7-2.8-3.7z" class="st15" clip-rule="evenodd" fill="#231f20" fill-rule="evenodd"/><path id="path3878" d="M84.3 32.5s.9 1.8 3 3.3c2.1 1.5 3.8.6 3.8.6s-1.6-.2-3-1.2-3.8-2.7-3.8-2.7z" class="st15" clip-rule="evenodd" fill="#231f20" fill-rule="evenodd"/><path id="path3880" d="M83.6 37.1s.7 1.9 2.4 3.6c1.7 1.7 3.1 1.1 3.1 1.1s-1.3-.4-2.4-1.5c-1.2-1.2-3.1-3.2-3.1-3.2z" class="st15" clip-rule="evenodd" fill="#231f20" fill-rule="evenodd"/></g><g transform="translate(1.6)" id="g3955"><text y="-145.767" x="57.29" id="text3883" class="st16 st17 st18" transform="skewY(5.864) scale(1.37795 -.72572)" font-size="11.762" font-family="Knockout-28JuniorFeathrwt" letter-spacing=".479" fill="#fff" stroke-width=".798"><tspan id="tspan3903" style="-inkscape-font-specification:'Knockout-28JuniorFeathrwt, Normal';font-variant-ligatures:normal;font-variant-caps:normal;font-variant-numeric:normal;font-feature-settings:normal;text-align:start" font-style="normal" font-variant="normal" font-weight="400" font-stretch="normal" font-size="10.667" font-family="Knockout-28JuniorFeathrwt" writing-mode="lr-tb" text-anchor="start" stroke-width=".798">PEOPLE</tspan></text><text y="-129.618" x="56.322" id="text3885" class="st16 st17 st18" transform="skewY(5.864) scale(1.34481 -.7436)" font-size="11.479" font-family="Knockout-28JuniorFeathrwt" fill="#fff" stroke-width=".779"><tspan id="tspan3899" style="-inkscape-font-specification:'Knockout-28JuniorFeathrwt, Normal';font-variant-ligatures:normal;font-variant-caps:normal;font-variant-numeric:normal;font-feature-settings:normal;text-align:start" font-style="normal" font-variant="normal" font-weight="400" font-stretch="normal" font-size="10.667" font-family="Knockout-28JuniorFeathrwt" writing-mode="lr-tb" text-anchor="start" stroke-width=".779">PURPOSE</tspan></text><text y="-117.185" x="57.883" id="text3887" class="st16 st17 st18" transform="skewY(5.864) scale(1.34481 -.7436)" font-size="11.479" font-family="Knockout-28JuniorFeathrwt" fill="#fff" stroke-width=".779"><tspan id="tspan3901" style="-inkscape-font-specification:'Knockout-28JuniorFeathrwt, Normal';font-variant-ligatures:normal;font-variant-caps:normal;font-variant-numeric:normal;font-feature-settings:normal;text-align:start" font-style="normal" font-variant="normal" font-weight="400" font-stretch="normal" font-size="10.667" font-family="Knockout-28JuniorFeathrwt" writing-mode="lr-tb" text-anchor="start" stroke-width=".779">PASSION</tspan></text></g><path d="M120.1 78.7l.166-10.127s-.3-4.494 2.105-4.188c4.31.817 17.44 7.661 17.44-6.946 0-14.504-12.128-8.682-16.839-8.07-1.603.205-2.706-2.655-2.706-2.655L120.3 36.7l29.934-.292v42.584z" id="path3852" fill="#3cc" stroke="#231f20" stroke-width="5.059" stroke-miterlimit="10"/><path d="M158 32.6l-11.9.1-2.1 1.2-1 7.5 1 9.6 1.7 5.1 12.5.7.4-5.2 1.3-4.4-.3-2.5.3-4.5-1.7-2.2.4-3.1z" class="st13" id="path72_2_" transform="translate(1.9 17.1)" clip-rule="evenodd" fill="#fff" fill-rule="evenodd"/><path id="path3859" d="M159.1 56.5s-14.8 4.4-16.4-2.9c-.1-.5.5-2.3.3-2.9-.1-.8-1.3-2.3-1.2-3.1 0-1.3.3-2.2.6-3.6.2-1.2-.7-3-.5-4.1.2-1.1 1.3-2.3.9-4-1.3-4.8 3.8-4.6 7.8-4.9 8.2-.5 10.7 3.5 9.3 6.3 2.8 2.7.6 6.7.6 6.7s2.3 3.1-.5 6.5c1.9 3.2-.9 6-.9 6zm-13.9-21.4c.7 2 10.3 1.7 13.7 2.1 4.1.5-4.4 2.9-13 2.1-.9-.4-2.4 2.4-.9 3.5s8.1 1.4 12.8 1.1c4.2-.2-.6 3.1-12.9 1.2-1.6.4-.7 3.3.9 4.5.2.2 12.9.4 12.9.4s-.3 1.8-11.8 1.6c-1.8 1.5-2 3.3 3 3.9 1.8.2 6-.6 6-.6 3.8-1.8.6-4.6.6-4.6 5.6-2.5 0-6.1 0-6.1s2.2.4 2.2-3-1.7-3.4-1.7-3.4 1.3-.7 1.1-2.6c-.2-1.9-3.6-2.3-3.6-2.3s-10.5-1.5-9.3 2.2z" class="st2" transform="translate(1.9 17.1)" fill="#231f20"/></g></g></svg>